<svg id="visual" viewBox="0 0 960 300" width="960" height="300" xmlns="http://www.w3.org/2000/svg" xmlns:xlink="http://www.w3.org/1999/xlink" version="1.1"><path d="M0 104L22.8 101.2C45.7 98.3 91.3 92.7 137 95.5C182.7 98.3 228.3 109.7 274 109.8C319.7 110 365.3 99 411.2 93.2C457 87.3 503 86.7 548.8 91C594.7 95.3 640.3 104.7 686 108.2C731.7 111.7 777.3 109.3 823 105C868.7 100.7 914.3 94.3 937.2 91.2L960 88L960 0L937.2 0C914.3 0 868.7 0 823 0C777.3 0 731.7 0 686 0C640.3 0 594.7 0 548.8 0C503 0 457 0 411.2 0C365.3 0 319.7 0 274 0C228.3 0 182.7 0 137 0C91.3 0 45.7 0 22.8 0L0 0Z" fill="#f7770f"></path><path d="M0 98L22.8 98.2C45.7 98.3 91.3 98.7 137 93.8C182.7 89 228.3 79 274 73.7C319.7 68.3 365.3 67.7 411.2 71.5C457 75.3 503 83.7 548.8 85C594.7 86.3 640.3 80.7 686 79.7C731.7 78.7 777.3 82.3 823 82.8C868.7 83.3 914.3 80.7 937.2 79.3L960 78L960 0L937.2 0C914.3 0 868.7 0 823 0C777.3 0 731.7 0 686 0C640.3 0 594.7 0 548.8 0C503 0 457 0 411.2 0C365.3 0 319.7 0 274 0C228.3 0 182.7 0 137 0C91.3 0 45.7 0 22.8 0L0 0Z" fill="#d53a52"></path><path d="M0 51L22.8 55.7C45.7 60.3 91.3 69.7 137 69.8C182.7 70 228.3 61 274 57.8C319.7 54.7 365.3 57.3 411.2 58C457 58.7 503 57.3 548.8 59.8C594.7 62.3 640.3 68.7 686 69.2C731.7 69.7 777.3 64.3 823 61C868.7 57.7 914.3 56.3 937.2 55.7L960 55L960 0L937.2 0C914.3 0 868.7 0 823 0C777.3 0 731.7 0 686 0C640.3 0 594.7 0 548.8 0C503 0 457 0 411.2 0C365.3 0 319.7 0 274 0C228.3 0 182.7 0 137 0C91.3 0 45.7 0 22.8 0L0 0Z" fill="#8a2c67"></path><path d="M0 58L22.8 56.8C45.7 55.7 91.3 53.3 137 52.3C182.7 51.3 228.3 51.7 274 49C319.7 46.3 365.3 40.7 411.2 38.2C457 35.7 503 36.3 548.8 38.2C594.7 40 640.3 43 686 41.8C731.7 40.7 777.3 35.3 823 34.3C868.7 33.3 914.3 36.7 937.2 38.3L960 40L960 0L937.2 0C914.3 0 868.7 0 823 0C777.3 0 731.7 0 686 0C640.3 0 594.7 0 548.8 0C503 0 457 0 411.2 0C365.3 0 319.7 0 274 0C228.3 0 182.7 0 137 0C91.3 0 45.7 0 22.8 0L0 0Z" fill="#362753"></path><path d="M0 18L22.8 20.5C45.7 23 91.3 28 137 30C182.7 32 228.3 31 274 30.8C319.7 30.7 365.3 31.3 411.2 32C457 32.7 503 33.3 548.8 30.2C594.7 27 640.3 20 686 16.8C731.7 13.7 777.3 14.3 823 14.3C868.7 14.3 914.3 13.7 937.2 13.3L960 13L960 0L937.2 0C914.3 0 868.7 0 823 0C777.3 0 731.7 0 686 0C640.3 0 594.7 0 548.8 0C503 0 457 0 411.2 0C365.3 0 319.7 0 274 0C228.3 0 182.7 0 137 0C91.3 0 45.7 0 22.8 0L0 0Z" fill="#001122"></path></svg>