<svg id="visual" viewBox="0 0 960 100" width="960" height="100" xmlns="http://www.w3.org/2000/svg" version="1.1"><path d="M0 62L22.8 60.5C45.7 59 91.3 56 137 56.2C182.7 56.3 228.3 59.7 274 63.8C319.7 68 365.3 73 411.2 70.5C457 68 503 58 548.8 57C594.7 56 640.3 64 686 66.8C731.7 69.7 777.3 67.3 823 66.2C868.7 65 914.3 65 937.2 65L960 65L960 0L937.2 0C914.3 0 868.7 0 823 0C777.3 0 731.7 0 686 0C640.3 0 594.7 0 548.8 0C503 0 457 0 411.2 0C365.3 0 319.7 0 274 0C228.3 0 182.7 0 137 0C91.3 0 45.7 0 22.8 0L0 0Z" fill="#f7770f"></path><path d="M0 42L22.8 41.3C45.7 40.7 91.3 39.3 137 41.2C182.7 43 228.3 48 274 47.7C319.7 47.3 365.3 41.7 411.2 41.2C457 40.7 503 45.3 548.8 47.8C594.7 50.3 640.3 50.7 686 47.7C731.7 44.7 777.3 38.3 823 36C868.7 33.7 914.3 35.3 937.2 36.2L960 37L960 0L937.2 0C914.3 0 868.7 0 823 0C777.3 0 731.7 0 686 0C640.3 0 594.7 0 548.8 0C503 0 457 0 411.2 0C365.3 0 319.7 0 274 0C228.3 0 182.7 0 137 0C91.3 0 45.7 0 22.8 0L0 0Z" fill="#8a2c67"></path><path d="M0 16L22.8 15.3C45.7 14.7 91.3 13.3 137 15.8C182.7 18.3 228.3 24.7 274 28.3C319.7 32 365.3 33 411.2 30.7C457 28.3 503 22.7 548.8 20.7C594.7 18.7 640.3 20.3 686 22.3C731.7 24.3 777.3 26.7 823 26.3C868.7 26 914.3 23 937.2 21.5L960 20L960 0L937.2 0C914.3 0 868.7 0 823 0C777.3 0 731.7 0 686 0C640.3 0 594.7 0 548.8 0C503 0 457 0 411.2 0C365.3 0 319.7 0 274 0C228.3 0 182.7 0 137 0C91.3 0 45.7 0 22.8 0L0 0Z" fill="#001122"></path></svg>