<svg id="visual" viewBox="0 0 960 100" width="960" height="100" xmlns="http://www.w3.org/2000/svg" version="1.1"><path d="M0 73L22.8 72.8C45.7 72.7 91.3 72.3 137 70.7C182.7 69 228.3 66 274 65.2C319.7 64.3 365.3 65.7 411.2 66.2C457 66.7 503 66.3 548.8 62.8C594.7 59.3 640.3 52.7 686 52.3C731.7 52 777.3 58 823 60.7C868.7 63.3 914.3 62.7 937.2 62.3L960 62L960 0L937.2 0C914.3 0 868.7 0 823 0C777.3 0 731.7 0 686 0C640.3 0 594.7 0 548.8 0C503 0 457 0 411.2 0C365.3 0 319.7 0 274 0C228.3 0 182.7 0 137 0C91.3 0 45.7 0 22.8 0L0 0Z" fill="#f7770f"></path><path d="M0 50L22.8 49.3C45.7 48.7 91.3 47.3 137 47.5C182.7 47.7 228.3 49.3 274 49.5C319.7 49.7 365.3 48.3 411.2 46.8C457 45.3 503 43.7 548.8 41.7C594.7 39.7 640.3 37.3 686 36.2C731.7 35 777.3 35 823 35.5C868.7 36 914.3 37 937.2 37.5L960 38L960 0L937.2 0C914.3 0 868.7 0 823 0C777.3 0 731.7 0 686 0C640.3 0 594.7 0 548.8 0C503 0 457 0 411.2 0C365.3 0 319.7 0 274 0C228.3 0 182.7 0 137 0C91.3 0 45.7 0 22.8 0L0 0Z" fill="#8a2c67"></path><path d="M0 25L22.8 22.8C45.7 20.7 91.3 16.3 137 15.5C182.7 14.7 228.3 17.3 274 21.3C319.7 25.3 365.3 30.7 411.2 32.2C457 33.7 503 31.3 548.8 28.8C594.7 26.3 640.3 23.7 686 20.8C731.7 18 777.3 15 823 14.3C868.7 13.7 914.3 15.3 937.2 16.2L960 17L960 0L937.2 0C914.3 0 868.7 0 823 0C777.3 0 731.7 0 686 0C640.3 0 594.7 0 548.8 0C503 0 457 0 411.2 0C365.3 0 319.7 0 274 0C228.3 0 182.7 0 137 0C91.3 0 45.7 0 22.8 0L0 0Z" fill="#001122"></path></svg>