<svg id="visual" viewBox="0 0 960 100" width="960" height="100" xmlns="http://www.w3.org/2000/svg" xmlns:xlink="http://www.w3.org/1999/xlink" version="1.1"><rect x="0" y="0" width="960" height="100" fill="#001220"></rect><path d="M0 58L22.8 58.7C45.7 59.3 91.3 60.7 137 63.2C182.7 65.7 228.3 69.3 274 71.7C319.7 74 365.3 75 411.2 72.2C457 69.3 503 62.7 548.8 61.7C594.7 60.7 640.3 65.3 686 64C731.7 62.7 777.3 55.3 823 52.5C868.7 49.7 914.3 51.3 937.2 52.2L960 53L960 0L937.2 0C914.3 0 868.7 0 823 0C777.3 0 731.7 0 686 0C640.3 0 594.7 0 548.8 0C503 0 457 0 411.2 0C365.3 0 319.7 0 274 0C228.3 0 182.7 0 137 0C91.3 0 45.7 0 22.8 0L0 0Z" fill="#f7770f"></path><path d="M0 36L22.8 38C45.7 40 91.3 44 137 45.7C182.7 47.3 228.3 46.7 274 44.3C319.7 42 365.3 38 411.2 36.2C457 34.3 503 34.7 548.8 36.3C594.7 38 640.3 41 686 39.8C731.7 38.7 777.3 33.3 823 31C868.7 28.7 914.3 29.3 937.2 29.7L960 30L960 0L937.2 0C914.3 0 868.7 0 823 0C777.3 0 731.7 0 686 0C640.3 0 594.7 0 548.8 0C503 0 457 0 411.2 0C365.3 0 319.7 0 274 0C228.3 0 182.7 0 137 0C91.3 0 45.7 0 22.8 0L0 0Z" fill="#8a2c67"></path><path d="M0 36L22.8 34.7C45.7 33.3 91.3 30.7 137 28.7C182.7 26.7 228.3 25.3 274 23.2C319.7 21 365.3 18 411.2 16.8C457 15.7 503 16.3 548.8 16.3C594.7 16.3 640.3 15.7 686 16.3C731.7 17 777.3 19 823 22.5C868.7 26 914.3 31 937.2 33.5L960 36L960 0L937.2 0C914.3 0 868.7 0 823 0C777.3 0 731.7 0 686 0C640.3 0 594.7 0 548.8 0C503 0 457 0 411.2 0C365.3 0 319.7 0 274 0C228.3 0 182.7 0 137 0C91.3 0 45.7 0 22.8 0L0 0Z" fill="#001122"></path></svg>