<svg id="visual" viewBox="0 0 960 300" width="960" height="300" xmlns="http://www.w3.org/2000/svg" xmlns:xlink="http://www.w3.org/1999/xlink" version="1.1"><path d="M0 75L22.8 75.3C45.7 75.7 91.3 76.3 137 79.3C182.7 82.3 228.3 87.7 274 87.7C319.7 87.7 365.3 82.3 411.2 82.2C457 82 503 87 548.8 90.2C594.7 93.3 640.3 94.7 686 91.8C731.7 89 777.3 82 823 80C868.7 78 914.3 81 937.2 82.5L960 84L960 0L937.2 0C914.3 0 868.7 0 823 0C777.3 0 731.7 0 686 0C640.3 0 594.7 0 548.8 0C503 0 457 0 411.2 0C365.3 0 319.7 0 274 0C228.3 0 182.7 0 137 0C91.3 0 45.7 0 22.8 0L0 0Z" fill="#f7770f"></path><path d="M0 59L22.8 57.3C45.7 55.7 91.3 52.3 137 50.7C182.7 49 228.3 49 274 52.3C319.7 55.7 365.3 62.3 411.2 68.3C457 74.3 503 79.7 548.8 79.5C594.7 79.3 640.3 73.7 686 67.7C731.7 61.7 777.3 55.3 823 53.7C868.7 52 914.3 55 937.2 56.5L960 58L960 0L937.2 0C914.3 0 868.7 0 823 0C777.3 0 731.7 0 686 0C640.3 0 594.7 0 548.8 0C503 0 457 0 411.2 0C365.3 0 319.7 0 274 0C228.3 0 182.7 0 137 0C91.3 0 45.7 0 22.8 0L0 0Z" fill="#8a2c67"></path><path d="M0 20L22.8 22C45.7 24 91.3 28 137 29.2C182.7 30.3 228.3 28.7 274 28.3C319.7 28 365.3 29 411.2 29.2C457 29.3 503 28.7 548.8 29.5C594.7 30.3 640.3 32.7 686 31.2C731.7 29.7 777.3 24.3 823 25.3C868.7 26.3 914.3 33.7 937.2 37.3L960 41L960 0L937.2 0C914.3 0 868.7 0 823 0C777.3 0 731.7 0 686 0C640.3 0 594.7 0 548.8 0C503 0 457 0 411.2 0C365.3 0 319.7 0 274 0C228.3 0 182.7 0 137 0C91.3 0 45.7 0 22.8 0L0 0Z" fill="#001122"></path></svg>