<svg id="visual" viewBox="0 0 960 100" width="960" height="100" xmlns="http://www.w3.org/2000/svg" version="1.1"><path d="M0 66L22.8 63C45.7 60 91.3 54 137 56.2C182.7 58.3 228.3 68.7 274 70.2C319.7 71.7 365.3 64.3 411.2 62.3C457 60.3 503 63.7 548.8 63.8C594.7 64 640.3 61 686 59.8C731.7 58.7 777.3 59.3 823 61C868.7 62.7 914.3 65.3 937.2 66.7L960 68L960 0L937.2 0C914.3 0 868.7 0 823 0C777.3 0 731.7 0 686 0C640.3 0 594.7 0 548.8 0C503 0 457 0 411.2 0C365.3 0 319.7 0 274 0C228.3 0 182.7 0 137 0C91.3 0 45.7 0 22.8 0L0 0Z" fill="#f7770f"></path><path d="M0 45L22.8 43C45.7 41 91.3 37 137 38.3C182.7 39.7 228.3 46.3 274 48.3C319.7 50.3 365.3 47.7 411.2 46.8C457 46 503 47 548.8 45.5C594.7 44 640.3 40 686 39.8C731.7 39.7 777.3 43.3 823 44.8C868.7 46.3 914.3 45.7 937.2 45.3L960 45L960 0L937.2 0C914.3 0 868.7 0 823 0C777.3 0 731.7 0 686 0C640.3 0 594.7 0 548.8 0C503 0 457 0 411.2 0C365.3 0 319.7 0 274 0C228.3 0 182.7 0 137 0C91.3 0 45.7 0 22.8 0L0 0Z" fill="#8a2c67"></path><path d="M0 21L22.8 21.2C45.7 21.3 91.3 21.7 137 23C182.7 24.3 228.3 26.7 274 28C319.7 29.3 365.3 29.7 411.2 27.5C457 25.3 503 20.7 548.8 19.5C594.7 18.3 640.3 20.7 686 23.2C731.7 25.7 777.3 28.3 823 29.3C868.7 30.3 914.3 29.7 937.2 29.3L960 29L960 0L937.2 0C914.3 0 868.7 0 823 0C777.3 0 731.7 0 686 0C640.3 0 594.7 0 548.8 0C503 0 457 0 411.2 0C365.3 0 319.7 0 274 0C228.3 0 182.7 0 137 0C91.3 0 45.7 0 22.8 0L0 0Z" fill="#001122"></path></svg>