<svg id="visual" viewBox="0 0 960 100" width="960" height="100" xmlns="http://www.w3.org/2000/svg" xmlns:xlink="http://www.w3.org/1999/xlink" version="1.1"><rect x="0" y="0" width="960" height="100" fill="#001220"></rect><path d="M0 35L22.8 34C45.7 33 91.3 31 137 33.3C182.7 35.7 228.3 42.3 274 42.7C319.7 43 365.3 37 411.2 34.3C457 31.7 503 32.3 548.8 31.8C594.7 31.3 640.3 29.7 686 31.5C731.7 33.3 777.3 38.7 823 39.8C868.7 41 914.3 38 937.2 36.5L960 35L960 101L937.2 101C914.3 101 868.7 101 823 101C777.3 101 731.7 101 686 101C640.3 101 594.7 101 548.8 101C503 101 457 101 411.2 101C365.3 101 319.7 101 274 101C228.3 101 182.7 101 137 101C91.3 101 45.7 101 22.8 101L0 101Z" fill="#f7770f"></path><path d="M0 67L22.8 66.8C45.7 66.7 91.3 66.3 137 64.7C182.7 63 228.3 60 274 57.8C319.7 55.7 365.3 54.3 411.2 56C457 57.7 503 62.3 548.8 63.7C594.7 65 640.3 63 686 63C731.7 63 777.3 65 823 63.3C868.7 61.7 914.3 56.3 937.2 53.7L960 51L960 101L937.2 101C914.3 101 868.7 101 823 101C777.3 101 731.7 101 686 101C640.3 101 594.7 101 548.8 101C503 101 457 101 411.2 101C365.3 101 319.7 101 274 101C228.3 101 182.7 101 137 101C91.3 101 45.7 101 22.8 101L0 101Z" fill="#8a2c67"></path><path d="M0 81L22.8 80.7C45.7 80.3 91.3 79.7 137 77.2C182.7 74.7 228.3 70.3 274 67.5C319.7 64.7 365.3 63.3 411.2 65.5C457 67.7 503 73.3 548.8 74.7C594.7 76 640.3 73 686 70.5C731.7 68 777.3 66 823 66.2C868.7 66.3 914.3 68.7 937.2 69.8L960 71L960 101L937.2 101C914.3 101 868.7 101 823 101C777.3 101 731.7 101 686 101C640.3 101 594.7 101 548.8 101C503 101 457 101 411.2 101C365.3 101 319.7 101 274 101C228.3 101 182.7 101 137 101C91.3 101 45.7 101 22.8 101L0 101Z" fill="#001122"></path></svg>